# Blender 3.4.1
# www.blender.org
mtllib rock.mtl
o Cube
v -0.808991 -0.409571 0.775669
v -0.535096 0.526195 0.658820
v -0.621176 -0.430844 -0.419679
v -0.412333 0.597269 -0.585832
v 0.464905 -0.473806 0.658820
v 0.759828 0.511345 0.571166
v 0.587668 -0.402731 -0.585832
v 0.817540 0.674768 -0.722789
v -0.876538 -0.523455 0.210400
v -0.832900 0.064334 0.859762
v -0.586592 0.663526 0.031899
v -0.630230 0.075738 -0.617464
v -0.020662 -0.533830 -0.617464
v 0.233413 0.768637 -0.812349
v 0.842981 0.159069 -0.812349
v 0.632544 -0.555610 0.031899
v 0.956759 0.711851 -0.099025
v 0.746321 -0.002827 0.745223
v -0.223332 -0.545234 0.859762
v 0.136753 0.606741 0.745223
v -1.019421 0.068511 0.150329
v 0.134603 0.133746 -1.001099
v 1.082507 0.079646 -0.062743
v -0.071517 0.014411 1.088685
v -0.179915 -0.770995 0.150329
v 0.243001 0.919152 -0.062743
vn -0.9661 -0.1558 0.2060
vn -0.7762 0.5975 0.2015
vn -0.8201 0.4505 -0.3527
vn -0.8797 -0.2206 -0.4214
vn -0.3738 -0.3738 -0.8489
vn -0.4191 0.2794 -0.8639
vn 0.2165 0.2165 -0.9520
vn 0.2002 -0.4884 -0.8494
vn 0.8004 -0.5409 -0.2584
vn 0.9559 0.1379 -0.2594
vn 0.9192 0.1563 0.3614
vn 0.8015 -0.5278 0.2812
vn 0.3244 -0.3988 0.8577
vn 0.3412 0.3412 0.8758
vn -0.1939 0.5220 0.8306
vn -0.2518 -0.2518 0.9344
vn -0.3043 -0.9030 -0.3033
vn 0.2152 -0.9445 -0.2481
vn 0.2333 -0.9389 0.2529
vn -0.2814 -0.9259 0.2520
vn 0.2293 0.9607 -0.1561
vn -0.3102 0.9325 -0.1852
vn -0.2079 0.9356 0.2853
vn 0.2598 0.8946 0.3637
vt -0.274326 0.404899
vt 0.318928 -0.253529
vt 0.845432 0.959428
vt 0.006358 0.301257
vt 0.034554 -0.121470
vt 0.853589 0.957478
vt -0.334511 -0.080826
vt 1.332534 -0.168771
vt 0.760831 0.474095
vt -0.027825 -0.210085
vt 1.008798 -0.151034
vt 1.239686 0.972714
vt 0.369887 -0.013135
vt 0.358565 0.269047
vt 0.450419 0.949446
vt 0.451414 0.379368
vt 0.059285 0.410780
vt 0.931452 0.433202
vt 1.264726 0.320875
vt 0.751938 -0.076831
vt 0.384752 0.441922
vt 0.924900 0.343936
vt 0.853589 0.349412
vt 1.330088 0.477597
vt -0.334511 0.181421
vt 0.853589 0.725253
vt -0.125743 0.410780
vt 0.172380 -0.253529
vt 0.020164 0.037618
vt 1.043599 1.011440
vt -0.188604 -0.191742
vt 1.178506 -0.205550
vt 1.334511 0.082110
vt 0.571428 0.410780
vt 0.924900 0.100313
vt 1.334511 0.720873
vt 1.080905 0.387973
vt 0.852056 0.133884
vt 0.555769 -0.092851
vt 0.384752 0.696967
vt 0.666174 0.410780
vt 1.144502 0.387973
vt 0.369887 0.184046
vt 0.217671 0.394557
vt 0.369887 -0.015483
vt 0.666914 1.011440
vt 0.020164 0.156510
vt 0.853589 0.678540
vt -0.156329 0.121499
vt 1.123339 0.101620
vt 0.619921 0.157414
vt 0.199627 0.058566
vt 0.637664 0.721366
vt 1.105270 0.677584
s 0
usemtl Material.003
f 1/1/1 10/27/1 21/49/1 9/25/1
f 10/27/2 2/4/2 11/29/2 21/49/2
f 21/49/3 11/29/3 4/10/3 12/31/3
f 9/25/4 21/49/4 12/31/4 3/7/4
f 3/8/5 12/32/5 22/50/5 13/33/5
f 12/32/6 4/11/6 14/35/6 22/50/6
f 22/50/7 14/35/7 8/22/7 15/37/7
f 13/33/8 22/50/8 15/37/8 7/19/8
f 7/20/9 15/38/9 23/51/9 16/39/9
f 15/38/10 8/23/10 17/41/10 23/51/10
f 23/51/11 17/41/11 6/16/11 18/43/11
f 16/39/12 23/51/12 18/43/12 5/13/12
f 5/14/13 18/44/13 24/52/13 19/45/13
f 18/44/14 6/17/14 20/47/14 24/52/14
f 24/52/15 20/47/15 2/5/15 10/28/15
f 19/45/16 24/52/16 10/28/16 1/2/16
f 3/9/17 13/34/17 25/53/17 9/26/17
f 13/34/18 7/21/18 16/40/18 25/53/18
f 25/53/19 16/40/19 5/15/19 19/46/19
f 9/26/20 25/53/20 19/46/20 1/3/20
f 8/24/21 14/36/21 26/54/21 17/42/21
f 14/36/22 4/12/22 11/30/22 26/54/22
f 26/54/23 11/30/23 2/6/23 20/48/23
f 17/42/24 26/54/24 20/48/24 6/18/24
