# Blender 3.4.1
# www.blender.org
mtllib tree_top.mtl
o Cone
v 0.195090 0.850199 0.980785
v 0.005529 2.850197 0.013347
v 0.382683 0.850199 0.923880
v 0.008026 2.850197 0.012012
v 0.555570 0.850199 0.831470
v 0.010216 2.850197 0.010216
v 0.707107 0.850199 0.707107
v 0.012012 2.850197 0.008026
v 0.831470 0.850199 0.555570
v 0.013347 2.850197 0.005529
v 0.923880 0.850199 0.382683
v 0.014169 2.850197 0.002818
v 0.980785 0.850199 0.195090
v 0.014447 2.850197 0.000000
v 1.000000 0.850199 0.000000
v 0.014169 2.850197 -0.002818
v 0.980785 0.850199 -0.195090
v 0.013347 2.850197 -0.005529
v 0.923880 0.850199 -0.382683
v 0.012012 2.850197 -0.008026
v 0.831470 0.850199 -0.555570
v 0.010216 2.850197 -0.010216
v 0.707107 0.850199 -0.707107
v 0.008026 2.850197 -0.012012
v 0.555570 0.850199 -0.831470
v 0.005529 2.850197 -0.013347
v 0.382683 0.850199 -0.923880
v 0.002818 2.850197 -0.014169
v 0.195090 0.850199 -0.980785
v 0.000000 2.850197 -0.014447
v 0.000000 0.850199 -1.000000
v 0.002818 2.850197 0.014169
v 0.000000 0.850199 1.000000
v 0.000000 2.850197 0.014447
v -0.195090 0.850199 0.980785
v -0.002818 2.850197 0.014169
v -0.382683 0.850199 0.923880
v -0.005529 2.850197 0.013347
v -0.555570 0.850199 0.831470
v -0.008026 2.850197 0.012012
v -0.707107 0.850199 0.707107
v -0.010216 2.850197 0.010216
v -0.831470 0.850199 0.555570
v -0.012012 2.850197 0.008026
v -0.923880 0.850199 0.382683
v -0.013347 2.850197 0.005529
v -0.980785 0.850199 0.195090
v -0.014169 2.850197 0.002818
v -1.000000 0.850199 0.000000
v -0.014447 2.850197 0.000000
v -0.980785 0.850199 -0.195090
v -0.014169 2.850197 -0.002818
v -0.923880 0.850199 -0.382683
v -0.013347 2.850197 -0.005529
v -0.831470 0.850199 -0.555570
v -0.012012 2.850197 -0.008026
v -0.707107 0.850199 -0.707107
v -0.010216 2.850197 -0.010216
v -0.555570 0.850199 -0.831470
v -0.008026 2.850197 -0.012012
v -0.382683 0.850199 -0.923880
v -0.005529 2.850197 -0.013347
v -0.195090 0.850199 -0.980785
v -0.002818 2.850197 -0.014169
vn 0.8592 0.4403 0.2606
vn 0.8935 0.4403 0.0880
vn 0.8935 0.4403 -0.0880
vn 0.8592 0.4403 -0.2606
vn 0.7918 0.4403 -0.4232
vn 0.6940 0.4403 -0.5696
vn 0.5696 0.4403 -0.6940
vn 0.4232 0.4403 -0.7918
vn 0.2606 0.4403 -0.8592
vn 0.0880 0.4403 -0.8935
vn 0.7918 0.4403 0.4232
vn 0.6940 0.4403 0.5696
vn 0.5696 0.4403 0.6940
vn 0.4232 0.4403 0.7918
vn 0.2606 0.4403 0.8592
vn 0.0880 0.4403 0.8935
vn -0.0880 0.4403 0.8935
vn -0.2606 0.4403 0.8592
vn -0.4232 0.4403 0.7918
vn -0.5696 0.4403 0.6940
vn -0.6940 0.4403 0.5696
vn -0.7918 0.4403 0.4232
vn -0.8592 0.4403 0.2606
vn -0.8935 0.4403 0.0880
vn -0.8935 0.4403 -0.0880
vn -0.8592 0.4403 -0.2606
vn -0.7918 0.4403 -0.4232
vn -0.6940 0.4403 -0.5696
vn -0.5696 0.4403 -0.6940
vn -0.4232 0.4403 -0.7918
vn -0.0000 -1.0000 -0.0000
vn -0.2606 0.4403 -0.8592
vn -0.0880 0.4403 -0.8935
vn -0.0000 1.0000 -0.0000
vt 0.531250 0.500000
vt 0.796822 0.014612
vt 0.562500 1.000000
vt 0.341844 0.028269
vt 0.562500 0.500000
vt 0.841844 0.028269
vt 0.593750 1.000000
vt 0.383337 0.050447
vt 0.593750 0.500000
vt 0.883337 0.050447
vt 0.625000 1.000000
vt 0.419706 0.080294
vt 0.625000 0.500000
vt 0.919706 0.080294
vt 0.656250 1.000000
vt 0.449553 0.116663
vt 0.656250 0.500000
vt 0.949553 0.116663
vt 0.968750 1.000000
vt 0.687500 1.000000
vt 0.471731 0.158156
vt 0.968750 0.500000
vt 0.687500 0.500000
vt 0.971731 0.158156
vt 1.000000 1.000000
vt 0.937500 1.000000
vt 0.485388 0.203178
vt 1.000000 0.500000
vt 0.937500 0.500000
vt 0.985388 0.203178
vt 0.968750 1.000000
vt 0.906250 1.000000
vt 0.490000 0.250000
vt 0.968750 0.500000
vt 0.906250 0.500000
vt 0.990000 0.250000
vt 0.937500 1.000000
vt 0.875000 1.000000
vt 0.485388 0.296822
vt 0.937500 0.500000
vt 0.875000 0.500000
vt 0.985388 0.296822
vt 0.906250 1.000000
vt 0.843750 1.000000
vt 0.471731 0.341844
vt 0.906250 0.500000
vt 0.843750 0.500000
vt 0.971731 0.341844
vt 0.875000 1.000000
vt 0.812500 1.000000
vt 0.449553 0.383337
vt 0.875000 0.500000
vt 0.812500 0.500000
vt 0.949553 0.383337
vt 0.843750 1.000000
vt 0.781250 1.000000
vt 0.419706 0.419706
vt 0.843750 0.500000
vt 0.781250 0.500000
vt 0.919706 0.419706
vt 0.812500 1.000000
vt 0.750000 1.000000
vt 0.383337 0.449553
vt 0.812500 0.500000
vt 0.750000 0.500000
vt 0.883337 0.449553
vt 0.781250 1.000000
vt 0.718750 1.000000
vt 0.341844 0.471731
vt 0.781250 0.500000
vt 0.718750 0.500000
vt 0.841844 0.471731
vt 0.750000 1.000000
vt 0.687500 1.000000
vt 0.296822 0.485388
vt 0.750000 0.500000
vt 0.687500 0.500000
vt 0.796822 0.485388
vt 0.718750 1.000000
vt 0.000000 1.000000
vt 0.250000 0.490000
vt 0.718750 0.500000
vt 0.750000 0.490000
vt 0.000000 0.500000
vt 0.531250 1.000000
vt 0.296822 0.014612
vt 0.500000 0.500000
vt 0.750000 0.010000
vt 0.500000 1.000000
vt 0.250000 0.010000
vt 0.468750 0.500000
vt 0.703178 0.014612
vt 0.468750 1.000000
vt 0.203178 0.014612
vt 0.437500 0.500000
vt 0.658156 0.028269
vt 0.437500 1.000000
vt 0.158156 0.028269
vt 0.406250 0.500000
vt 0.616663 0.050447
vt 0.406250 1.000000
vt 0.116663 0.050447
vt 0.375000 0.500000
vt 0.580294 0.080294
vt 0.375000 1.000000
vt 0.080294 0.080294
vt 0.343750 0.500000
vt 0.550447 0.116663
vt 0.343750 1.000000
vt 0.050447 0.116663
vt 0.312500 0.500000
vt 0.528269 0.158156
vt 0.312500 1.000000
vt 0.028269 0.158156
vt 0.281250 0.500000
vt 0.514612 0.203178
vt 0.281250 1.000000
vt 0.014612 0.203178
vt 0.250000 0.500000
vt 0.510000 0.250000
vt 0.250000 1.000000
vt 0.010000 0.250000
vt 0.218750 0.500000
vt 0.514612 0.296822
vt 0.218750 1.000000
vt 0.014612 0.296822
vt 0.187500 0.500000
vt 0.528269 0.341844
vt 0.187500 1.000000
vt 0.028269 0.341844
vt 0.156250 0.500000
vt 0.550447 0.383337
vt 0.156250 1.000000
vt 0.050447 0.383337
vt 0.125000 0.500000
vt 0.580294 0.419706
vt 0.125000 1.000000
vt 0.080294 0.419706
vt 0.093750 0.500000
vt 0.616663 0.449553
vt 0.093750 1.000000
vt 0.116663 0.449553
vt 0.658156 0.471731
vt 0.062500 0.500000
vt 0.062500 1.000000
vt 0.158156 0.471731
vt 0.703178 0.485388
vt 0.031250 0.500000
vt 0.031250 1.000000
vt 0.203178 0.485388
s 0
usemtl Material.001
f 13/28/1 12/25/1 10/19/1 11/22/1
f 15/34/2 14/31/2 12/26/2 13/29/2
f 17/40/3 16/37/3 14/32/3 15/35/3
f 19/46/4 18/43/4 16/38/4 17/41/4
f 21/52/5 20/49/5 18/44/5 19/47/5
f 23/58/6 22/55/6 20/50/6 21/53/6
f 25/64/7 24/61/7 22/56/7 23/59/7
f 27/70/8 26/67/8 24/62/8 25/65/8
f 29/76/9 28/73/9 26/68/9 27/71/9
f 31/82/10 30/79/10 28/74/10 29/77/10
f 11/23/11 10/20/11 8/15/11 9/17/11
f 9/17/12 8/15/12 6/11/12 7/13/12
f 7/13/13 6/11/13 4/7/13 5/9/13
f 5/9/14 4/7/14 2/3/14 3/5/14
f 3/5/15 2/3/15 32/85/15 1/1/15
f 1/1/16 32/85/16 34/89/16 33/87/16
f 33/87/17 34/89/17 36/93/17 35/91/17
f 35/91/18 36/93/18 38/97/18 37/95/18
f 37/95/19 38/97/19 40/101/19 39/99/19
f 39/99/20 40/101/20 42/105/20 41/103/20
f 41/103/21 42/105/21 44/109/21 43/107/21
f 43/107/22 44/109/22 46/113/22 45/111/22
f 45/111/23 46/113/23 48/117/23 47/115/23
f 47/115/24 48/117/24 50/121/24 49/119/24
f 49/119/25 50/121/25 52/125/25 51/123/25
f 51/123/26 52/125/26 54/129/26 53/127/26
f 53/127/27 54/129/27 56/133/27 55/131/27
f 55/131/28 56/133/28 58/137/28 57/135/28
f 57/135/29 58/137/29 60/141/29 59/139/29
f 59/139/30 60/141/30 62/145/30 61/144/30
f 13/30/31 11/24/31 9/18/31 7/14/31 5/10/31 3/6/31 1/2/31 33/88/31 35/92/31 37/96/31 39/100/31 41/104/31 43/108/31 45/112/31 47/116/31 49/120/31 51/124/31 53/128/31 55/132/31 57/136/31 59/140/31 61/143/31 63/147/31 31/83/31 29/78/31 27/72/31 25/66/31 23/60/31 21/54/31 19/48/31 17/42/31 15/36/31
f 61/144/32 62/145/32 64/149/32 63/148/32
f 63/148/33 64/149/33 30/80/33 31/84/33
f 8/16/34 10/21/34 12/27/34 14/33/34 16/39/34 18/45/34 20/51/34 22/57/34 24/63/34 26/69/34 28/75/34 30/81/34 64/150/34 62/146/34 60/142/34 58/138/34 56/134/34 54/130/34 52/126/34 50/122/34 48/118/34 46/114/34 44/110/34 42/106/34 40/102/34 38/98/34 36/94/34 34/90/34 32/86/34 2/4/34 4/8/34 6/12/34
